<svg id="Layer_1" data-name="Layer 1" xmlns="http://www.w3.org/2000/svg" viewBox="0 0 49.09 38"><defs><style>.cls-1{fill:#fff;}</style></defs><path class="cls-1" d="M42,9.18A40.45,40.45,0,0,0,31.91,6c-.43.79-.94,1.85-1.3,2.69a37.68,37.68,0,0,0-11.22,0A29,29,0,0,0,18.08,6,40,40,0,0,0,7.94,9.19,42.47,42.47,0,0,0,.66,37.63,40.47,40.47,0,0,0,13.09,44a32.56,32.56,0,0,0,2.66-4.38,26.6,26.6,0,0,1-4.19-2c.35-.26.69-.54,1-.82a28.62,28.62,0,0,0,24.84,0c.33.28.68.56,1,.82a26.18,26.18,0,0,1-4.19,2A30.08,30.08,0,0,0,36.91,44a40.47,40.47,0,0,0,12.43-6.37A42.42,42.42,0,0,0,42,9.18ZM16.85,31.91c-2.43,0-4.42-2.27-4.42-5s2-5,4.42-5a4.71,4.71,0,0,1,4.41,5C21.26,29.64,19.31,31.91,16.85,31.91Zm16.3,0c-2.42,0-4.41-2.27-4.41-5s2-5,4.41-5a4.71,4.71,0,0,1,4.42,5C37.57,29.64,35.62,31.91,33.15,31.91Z" transform="translate(-0.45 -6)"/></svg>