<svg id="Layer_1" data-name="Layer 1" xmlns="http://www.w3.org/2000/svg" viewBox="0 0 50.04 35.08"><defs><style>.cls-1{fill:#fff;}</style></defs><path class="cls-1" d="M23.2,35.08c-3.94-.19-9.68-.43-15.41-.76A7.57,7.57,0,0,1,3.4,33,6.28,6.28,0,0,1,1,29.23,51.59,51.59,0,0,1,0,18.79,67.42,67.42,0,0,1,.64,7.43,7.81,7.81,0,0,1,2.42,2.91,6.22,6.22,0,0,1,5.84,1,66.5,66.5,0,0,1,16,.15c7.79-.24,15.59-.23,23.38.27A38.8,38.8,0,0,1,44.06,1,5.7,5.7,0,0,1,49,5.69a50.82,50.82,0,0,1,.82,6.85,73,73,0,0,1-.47,15,7.9,7.9,0,0,1-1.81,4.57A5.61,5.61,0,0,1,44.17,34c-2.53.3-5.08.61-7.62.73C32.7,34.92,28.85,34.94,23.2,35.08ZM20,25l13-7.45L20,10Z" transform="translate(0.03 0)"/></svg>